<?xml version="1.0" encoding="UTF-8"?>
<svg xmlns="http://www.w3.org/2000/svg" xmlns:xlink="http://www.w3.org/1999/xlink" viewBox="0 0 48 48" width="48px" height="48px">
<g id="surface126026432">
<path style=" stroke:none;fill-rule:nonzero;fill:rgb(100%,100%,100%);fill-opacity:1;" d="M 41.3125 26.710938 C 39.636719 26.71875 38.1875 27.121094 36.96875 27.722656 C 36.523438 26.835938 36.070312 26.050781 35.996094 25.46875 C 35.90625 24.792969 35.804688 24.386719 35.910156 23.578125 C 36.019531 22.769531 36.484375 21.625 36.480469 21.539062 C 36.472656 21.453125 36.375 21.042969 35.40625 21.035156 C 34.441406 21.03125 33.613281 21.222656 33.515625 21.476562 C 33.417969 21.734375 33.230469 22.308594 33.117188 22.90625 C 32.945312 23.785156 31.1875 26.910156 30.1875 28.546875 C 29.859375 27.910156 29.578125 27.347656 29.523438 26.902344 C 29.433594 26.222656 29.332031 25.816406 29.4375 25.011719 C 29.542969 24.203125 30.011719 23.058594 30.007812 22.972656 C 30 22.886719 29.902344 22.472656 28.933594 22.46875 C 27.964844 22.460938 27.140625 22.652344 27.042969 22.910156 C 26.945312 23.164062 26.839844 23.761719 26.640625 24.339844 C 26.445312 24.917969 24.101562 30.132812 23.488281 31.484375 C 23.179688 32.175781 22.90625 32.726562 22.714844 33.105469 L 22.710938 33.105469 C 22.710938 33.105469 22.699219 33.128906 22.679688 33.171875 C 22.515625 33.492188 22.417969 33.671875 22.417969 33.671875 C 22.417969 33.671875 22.421875 33.675781 22.421875 33.679688 C 22.289062 33.914062 22.148438 34.132812 22.078125 34.132812 C 22.03125 34.132812 21.933594 33.507812 22.101562 32.640625 C 22.449219 30.832031 23.289062 28.011719 23.277344 27.914062 C 23.273438 27.863281 23.433594 27.371094 22.730469 27.117188 C 22.050781 26.867188 21.804688 27.28125 21.742188 27.285156 C 21.683594 27.285156 21.636719 27.433594 21.636719 27.433594 C 21.636719 27.433594 22.398438 24.257812 20.1875 24.257812 C 18.804688 24.257812 16.890625 25.769531 15.949219 27.140625 C 15.351562 27.464844 14.078125 28.160156 12.726562 28.902344 C 12.207031 29.1875 11.679688 29.476562 11.175781 29.757812 C 11.140625 29.71875 11.109375 29.679688 11.070312 29.640625 C 8.390625 26.78125 3.4375 24.761719 3.644531 20.914062 C 3.722656 19.519531 4.207031 15.839844 13.164062 11.375 C 20.503906 7.71875 26.378906 8.722656 27.394531 10.953125 C 28.84375 14.140625 24.253906 20.0625 16.632812 20.914062 C 13.730469 21.242188 12.203125 20.117188 11.820312 19.699219 C 11.421875 19.257812 11.363281 19.234375 11.210938 19.320312 C 10.96875 19.453125 11.121094 19.84375 11.210938 20.074219 C 11.441406 20.667969 12.375 21.71875 13.964844 22.238281 C 15.367188 22.699219 18.777344 22.953125 22.898438 21.359375 C 27.515625 19.570312 31.121094 14.605469 30.0625 10.449219 C 28.984375 6.226562 21.980469 4.839844 15.351562 7.191406 C 11.410156 8.585938 7.140625 10.785156 4.070312 13.65625 C 0.421875 17.070312 -0.160156 20.046875 0.078125 21.289062 C 0.929688 25.699219 7.011719 28.574219 9.449219 30.703125 C 9.328125 30.769531 9.214844 30.832031 9.113281 30.890625 C 7.890625 31.492188 3.253906 33.921875 2.09375 36.484375 C 0.777344 39.390625 2.304688 41.476562 3.3125 41.761719 C 6.441406 42.628906 9.648438 41.0625 11.375 38.492188 C 13.097656 35.921875 12.886719 32.570312 12.097656 31.042969 C 12.085938 31.023438 12.074219 31.003906 12.066406 30.984375 C 12.382812 30.800781 12.703125 30.609375 13.023438 30.421875 C 13.644531 30.058594 14.253906 29.714844 14.78125 29.429688 C 14.484375 30.238281 14.269531 31.210938 14.15625 32.617188 C 14.027344 34.265625 14.703125 36.398438 15.589844 37.238281 C 15.976562 37.609375 16.445312 37.617188 16.742188 37.617188 C 17.773438 37.617188 18.242188 36.761719 18.761719 35.746094 C 19.394531 34.503906 19.960938 33.058594 19.960938 33.058594 C 19.960938 33.058594 19.253906 36.96875 21.179688 36.96875 C 21.882812 36.96875 22.589844 36.058594 22.902344 35.59375 C 22.902344 35.601562 22.902344 35.601562 22.902344 35.601562 C 22.902344 35.601562 22.921875 35.570312 22.957031 35.511719 C 23.03125 35.398438 23.070312 35.328125 23.070312 35.328125 C 23.070312 35.328125 23.074219 35.320312 23.074219 35.308594 C 23.359375 34.820312 23.984375 33.703125 24.921875 31.863281 C 26.132812 29.480469 27.296875 26.503906 27.296875 26.503906 C 27.296875 26.503906 27.402344 27.230469 27.757812 28.4375 C 27.964844 29.144531 28.410156 29.929688 28.757812 30.679688 C 28.476562 31.070312 28.304688 31.292969 28.304688 31.292969 C 28.304688 31.292969 28.304688 31.296875 28.308594 31.304688 C 28.085938 31.605469 27.832031 31.925781 27.566406 32.238281 C 26.613281 33.378906 25.472656 34.679688 25.320312 35.054688 C 25.140625 35.496094 25.183594 35.824219 25.53125 36.085938 C 25.785156 36.277344 26.234375 36.304688 26.707031 36.277344 C 27.566406 36.21875 28.171875 36.003906 28.472656 35.875 C 28.9375 35.710938 29.480469 35.453125 29.988281 35.078125 C 30.925781 34.386719 31.492188 33.398438 31.4375 32.09375 C 31.40625 31.375 31.179688 30.660156 30.886719 29.984375 C 30.972656 29.863281 31.058594 29.738281 31.144531 29.613281 C 32.625 27.453125 33.773438 25.074219 33.773438 25.074219 C 33.773438 25.074219 33.878906 25.800781 34.234375 27.007812 C 34.414062 27.617188 34.765625 28.285156 35.085938 28.9375 C 33.695312 30.066406 32.832031 31.378906 32.53125 32.242188 C 31.976562 33.835938 32.410156 34.558594 33.226562 34.722656 C 33.59375 34.796875 34.117188 34.628906 34.507812 34.460938 C 34.992188 34.300781 35.578125 34.03125 36.125 33.628906 C 37.0625 32.941406 37.964844 31.972656 37.910156 30.664062 C 37.886719 30.070312 37.726562 29.480469 37.507812 28.910156 C 38.6875 28.421875 40.210938 28.148438 42.15625 28.375 C 46.328125 28.863281 47.144531 31.464844 46.988281 32.554688 C 46.835938 33.644531 45.957031 34.246094 45.664062 34.425781 C 45.375 34.605469 45.285156 34.671875 45.308594 34.804688 C 45.34375 35 45.476562 34.992188 45.726562 34.949219 C 46.070312 34.890625 47.917969 34.0625 47.996094 32.050781 C 48.097656 29.492188 45.648438 26.6875 41.3125 26.710938 Z M 9.15625 37.550781 C 7.773438 39.058594 5.84375 39.628906 5.015625 39.148438 C 4.121094 38.628906 4.476562 36.410156 6.171875 34.808594 C 7.207031 33.835938 8.539062 32.9375 9.425781 32.382812 C 9.628906 32.261719 9.925781 32.085938 10.285156 31.871094 C 10.34375 31.835938 10.378906 31.816406 10.378906 31.816406 L 10.375 31.816406 C 10.445312 31.773438 10.515625 31.730469 10.589844 31.6875 C 11.207031 33.964844 10.605469 35.96875 9.15625 37.550781 Z M 19.222656 30.707031 C 18.742188 31.878906 17.734375 34.882812 17.121094 34.71875 C 16.597656 34.582031 16.277344 32.300781 17.015625 30.054688 C 17.390625 28.925781 18.1875 27.570312 18.65625 27.046875 C 19.410156 26.203125 20.238281 25.929688 20.441406 26.269531 C 20.699219 26.707031 19.527344 29.972656 19.222656 30.707031 Z M 27.539062 34.675781 C 27.335938 34.78125 27.148438 34.851562 27.0625 34.796875 C 26.996094 34.761719 27.144531 34.621094 27.144531 34.621094 C 27.144531 34.621094 28.1875 33.5 28.597656 32.992188 C 28.835938 32.695312 29.109375 32.34375 29.410156 31.949219 C 29.414062 31.988281 29.414062 32.027344 29.414062 32.066406 C 29.414062 33.40625 28.117188 34.3125 27.539062 34.675781 Z M 33.949219 33.214844 C 33.796875 33.105469 33.820312 32.757812 34.320312 31.664062 C 34.519531 31.238281 34.964844 30.519531 35.746094 29.828125 C 35.835938 30.113281 35.890625 30.382812 35.890625 30.636719 C 35.878906 32.324219 34.675781 32.953125 33.949219 33.214844 Z M 33.949219 33.214844 "/>
</g>
</svg>
