<?xml version="1.0" encoding="UTF-8"?>
<svg xmlns="http://www.w3.org/2000/svg" xmlns:xlink="http://www.w3.org/1999/xlink" viewBox="0 0 30 30" width="30px" height="30px">
<g id="surface125864365">
<path style=" stroke:none;fill-rule:nonzero;fill:rgb(100%,100%,100%);fill-opacity:1;" d="M 15 21.675781 C 6.449219 21.675781 0 18.878906 0 15 C 0 11.121094 6.449219 8.25 15 8.25 C 23.550781 8.25 30 11.121094 30 15 C 30 18.878906 23.550781 21.675781 15 21.675781 Z M 15 10.449219 C 7.703125 10.449219 2.15625 12.898438 2.15625 15.046875 C 2.15625 17.195312 7.703125 19.550781 15 19.550781 C 22.296875 19.550781 27.84375 17.101562 27.84375 14.953125 C 27.84375 12.804688 22.296875 10.449219 15 10.449219 Z M 15 10.449219 "/>
<path style=" stroke:none;fill-rule:nonzero;fill:rgb(100%,100%,100%);fill-opacity:1;" d="M 9.300781 28.5 C 8.601562 28.5 7.964844 28.339844 7.40625 28.019531 C 6.492188 27.496094 5.835938 26.574219 5.507812 25.347656 C 4.648438 22.136719 6.035156 16.734375 9.042969 11.589844 C 12.570312 5.554688 17.253906 1.503906 20.699219 1.503906 C 21.398438 1.503906 22.035156 1.664062 22.59375 1.984375 C 23.507812 2.503906 24.164062 3.425781 24.492188 4.652344 C 25.351562 7.863281 23.964844 13.265625 20.957031 18.410156 C 17.429688 24.445312 12.746094 28.5 9.300781 28.5 Z M 20.699219 3.753906 C 18.535156 3.753906 14.390625 6.898438 10.984375 12.722656 C 7.890625 18.015625 6.984375 22.40625 7.679688 24.765625 C 7.867188 25.402344 8.132812 25.84375 8.523438 26.0625 C 10.292969 27.074219 15.128906 23.925781 19.015625 17.277344 C 22.109375 11.984375 23.109375 7.6875 22.320312 5.234375 C 22.117188 4.605469 21.867188 4.160156 21.480469 3.9375 C 21.261719 3.8125 21.003906 3.753906 20.699219 3.753906 Z M 20.699219 3.753906 "/>
<path style=" stroke:none;fill-rule:nonzero;fill:rgb(100%,100%,100%);fill-opacity:1;" d="M 20.699219 28.496094 C 17.25 28.496094 12.566406 24.445312 9.042969 18.410156 C 6.035156 13.265625 4.648438 7.863281 5.507812 4.652344 C 5.835938 3.425781 6.492188 2.503906 7.40625 1.980469 C 7.964844 1.660156 8.601562 1.5 9.300781 1.5 C 12.746094 1.5 17.429688 5.554688 20.957031 11.589844 C 23.964844 16.734375 25.351562 22.136719 24.492188 25.347656 C 24.164062 26.574219 23.507812 27.496094 22.59375 28.015625 C 22.035156 28.335938 21.394531 28.496094 20.699219 28.496094 Z M 9.300781 3.75 C 8.996094 3.75 8.738281 3.8125 8.519531 3.9375 C 8.132812 4.15625 7.863281 4.597656 7.679688 5.234375 C 6.984375 7.640625 7.890625 11.984375 10.984375 17.277344 C 14.390625 23.101562 18.53125 26.246094 20.699219 26.246094 C 21.003906 26.246094 21.257812 26.1875 21.480469 26.0625 C 21.863281 25.84375 22.140625 25.402344 22.316406 24.765625 C 22.96875 22.40625 22.105469 18.015625 19.015625 12.722656 C 15.609375 6.894531 11.46875 3.75 9.300781 3.75 Z M 9.300781 3.75 "/>
<path style=" stroke:none;fill-rule:nonzero;fill:rgb(100%,100%,100%);fill-opacity:1;" d="M 17.625 15 C 17.625 16.453125 16.453125 17.625 15 17.625 C 13.546875 17.625 12.375 16.453125 12.375 15 C 12.375 13.546875 13.546875 12.375 15 12.375 C 16.453125 12.375 17.625 13.546875 17.625 15 Z M 17.625 15 "/>
<path style=" stroke:none;fill-rule:nonzero;fill:rgb(100%,100%,100%);fill-opacity:1;" d="M 15 18 C 13.34375 18 12 16.65625 12 15 C 12 13.34375 13.34375 12 15 12 C 16.65625 12 18 13.34375 18 15 C 18 16.65625 16.65625 18 15 18 Z M 15 12.75 C 13.757812 12.75 12.75 13.757812 12.75 15 C 12.75 16.242188 13.757812 17.25 15 17.25 C 16.242188 17.25 17.25 16.242188 17.25 15 C 17.25 13.757812 16.242188 12.75 15 12.75 Z M 15 12.75 "/>
<path style=" stroke:none;fill-rule:nonzero;fill:rgb(100%,100%,100%);fill-opacity:1;" d="M 15 21.050781 C 7.007812 21.050781 0.75 18.394531 0.75 15 C 0.75 11.605469 7.007812 8.949219 15 8.949219 C 22.992188 8.949219 29.25 11.605469 29.25 15 C 29.25 18.394531 22.992188 21.050781 15 21.050781 Z M 15 9.699219 C 7.683594 9.699219 1.5 12.125 1.5 15 C 1.5 17.875 7.683594 20.300781 15 20.300781 C 22.316406 20.300781 28.5 17.875 28.5 15 C 28.5 12.125 22.316406 9.699219 15 9.699219 Z M 15 9.699219 "/>
<path style=" stroke:none;fill-rule:nonzero;fill:rgb(100%,100%,100%);fill-opacity:1;" d="M 9.300781 27.75 C 8.734375 27.75 8.222656 27.621094 7.777344 27.367188 C 7.03125 26.941406 6.511719 26.195312 6.230469 25.152344 C 5.417969 22.125 6.777344 16.949219 9.6875 11.96875 C 13.035156 6.246094 17.5625 2.253906 20.699219 2.253906 C 21.265625 2.253906 21.777344 2.382812 22.222656 2.636719 C 22.96875 3.0625 23.488281 3.804688 23.769531 4.847656 C 24.578125 7.875 23.222656 13.050781 20.308594 18.03125 C 16.964844 23.753906 12.441406 27.75 9.300781 27.75 Z M 20.699219 3.003906 C 17.859375 3.003906 13.503906 6.929688 10.335938 12.347656 C 7.566406 17.089844 6.207031 22.15625 6.957031 24.960938 C 7.179688 25.800781 7.582031 26.390625 8.148438 26.714844 C 8.480469 26.902344 8.867188 27 9.300781 27 C 12.140625 27 16.496094 23.070312 19.660156 17.652344 C 22.433594 12.910156 23.792969 7.839844 23.042969 5.039062 C 22.816406 4.199219 22.417969 3.609375 21.851562 3.289062 C 21.519531 3.097656 21.132812 3.003906 20.699219 3.003906 Z M 20.699219 3.003906 "/>
<path style=" stroke:none;fill-rule:nonzero;fill:rgb(100%,100%,100%);fill-opacity:1;" d="M 20.699219 27.746094 C 17.558594 27.746094 13.03125 23.753906 9.6875 18.03125 C 6.777344 13.050781 5.421875 7.875 6.230469 4.847656 C 6.511719 3.804688 7.03125 3.058594 7.777344 2.632812 C 8.222656 2.378906 8.734375 2.25 9.300781 2.25 C 12.4375 2.25 16.964844 6.246094 20.308594 11.96875 C 23.222656 16.949219 24.578125 22.125 23.765625 25.152344 C 23.488281 26.195312 22.96875 26.9375 22.222656 27.363281 C 21.777344 27.617188 21.265625 27.746094 20.699219 27.746094 Z M 9.300781 3 C 8.867188 3 8.480469 3.097656 8.148438 3.285156 C 7.582031 3.609375 7.179688 4.199219 6.953125 5.039062 C 6.207031 7.839844 7.566406 12.910156 10.335938 17.652344 C 13.5 23.066406 17.859375 26.996094 20.699219 26.996094 C 21.132812 26.996094 21.519531 26.902344 21.851562 26.710938 C 22.417969 26.390625 22.816406 25.800781 23.042969 24.960938 C 23.792969 22.15625 22.433594 17.089844 19.660156 12.347656 C 16.496094 6.929688 12.140625 3 9.300781 3 Z M 9.300781 3 "/>
</g>
</svg>
